<svg version="1.1" id="Layer_1" xmlns="http://www.w3.org/2000/svg" xmlns:xlink="http://www.w3.org/1999/xlink" x="0px" y="0px"
	 width="100%" viewBox="0 0 597 94" enable-background="new 0 0 597 94" xml:space="preserve">
<path fill="#191A1C" opacity="1.000000" stroke="none"
	d="
M439.000000,95.000000 
	C292.666656,95.000000 146.833328,95.000000 1.000000,95.000000 
	C1.000000,63.666668 1.000000,32.333332 1.000000,1.000000 
	C200.000000,1.000000 399.000000,1.000000 598.000000,1.000000 
	C598.000000,32.333332 598.000000,63.666668 598.000000,95.000000 
	C545.166687,95.000000 492.333344,95.000000 439.000000,95.000000 
M195.012405,81.344070 
	C195.012405,81.344070 195.291382,81.141418 195.291382,81.141418 
	C195.291382,81.141418 195.086868,80.863007 195.410263,80.443581 
	C195.345367,80.279411 195.280457,80.115234 195.497833,79.185760 
	C195.408234,72.144035 195.318634,65.102318 195.524963,57.265297 
	C195.415131,56.156403 195.305313,55.047504 195.427704,53.218777 
	C195.357529,50.148064 195.287369,47.077354 195.487732,43.302307 
	C195.395264,42.817215 195.302780,42.332127 195.473389,40.993412 
	C195.382812,36.990261 195.292236,32.987114 195.490372,28.186510 
	C195.398468,26.787710 195.306564,25.388912 195.491669,23.144554 
	C195.385223,21.084284 195.278778,19.024015 195.149918,16.339552 
	C194.764938,16.290262 194.379959,16.240973 193.067001,16.060955 
	C187.177521,16.060955 181.288025,16.060955 175.326614,16.060955 
	C175.326614,19.114077 175.326614,21.560736 175.147202,24.852619 
	C175.204865,26.573893 175.262543,28.295164 175.133835,30.913267 
	C175.190231,34.266586 175.246628,37.619907 175.094452,41.841396 
	C175.165771,44.215252 175.237091,46.589104 175.099091,49.839199 
	C175.169464,52.235600 175.239838,54.631996 175.142624,57.948280 
	C175.200043,65.302193 175.257446,72.656113 175.170349,80.612701 
	C175.776291,80.939034 176.382233,81.265366 177.903549,81.801041 
	C183.271362,81.735161 188.639191,81.669281 194.664917,81.655128 
	C194.772629,81.463318 194.880356,81.271515 195.012405,81.344070 
M430.656128,28.177870 
	C430.559479,26.453260 430.462830,24.728651 430.645660,22.198961 
	C430.542084,20.796917 430.438507,19.394873 430.591431,17.441317 
	C430.063934,17.046528 429.536438,16.651739 428.088196,16.067566 
	C422.217438,16.067566 416.346680,16.067566 410.412872,16.067566 
	C410.412872,18.784758 410.412872,20.894491 410.214447,23.845259 
	C410.278198,25.565226 410.341980,27.285194 410.209106,29.743551 
	C410.274933,30.498438 410.340790,31.253326 410.201996,32.887901 
	C410.044220,33.752716 409.886444,34.617535 409.720459,35.527203 
	C396.184143,30.923065 386.404297,33.061829 378.757416,42.455509 
	C378.197723,43.508499 377.638031,44.561489 376.613190,46.092503 
	C376.184265,47.353783 375.755310,48.615063 374.974030,50.614079 
	C374.754242,53.674072 374.534485,56.734066 374.156372,60.697693 
	C374.748993,63.396450 374.882935,66.305962 376.010193,68.759048 
	C382.298401,82.443176 398.019531,87.217018 411.125061,79.579788 
	C412.769470,78.621529 414.330383,76.750275 415.728668,80.871300 
	C420.029022,81.218063 424.326294,81.637871 428.633575,81.821541 
	C429.188446,81.845200 429.795471,80.644600 430.657135,79.117683 
	C430.548767,74.740059 430.440430,70.362434 430.599182,65.262283 
	C430.510101,64.251884 430.421021,63.241489 430.635773,61.322979 
	C430.548035,57.548458 430.460297,53.773941 430.638672,49.221066 
	C430.553223,48.141163 430.467804,47.061264 430.634460,45.199444 
	C430.549957,44.120113 430.465424,43.040783 430.646667,41.091301 
	C430.556549,38.067322 430.466461,35.043346 430.649292,31.290346 
	C430.559845,30.527620 430.470398,29.764894 430.656128,28.177870 
M149.908966,57.295616 
	C149.722260,56.168968 149.535553,55.042316 149.422943,53.115700 
	C147.273087,49.115189 145.123230,45.114674 142.737045,40.512310 
	C142.214874,40.143860 141.692688,39.775410 140.788528,38.889774 
	C138.185944,37.622463 135.583344,36.355152 132.339249,34.654606 
	C124.835533,32.547264 117.374840,32.275093 109.308357,35.199951 
	C107.076691,36.515091 104.845024,37.830227 102.008369,39.349258 
	C101.296364,40.114483 100.584351,40.879707 99.237518,41.966545 
	C97.418304,46.660397 95.599091,51.354248 93.394814,56.685555 
	C93.975449,60.124001 94.556084,63.562450 95.146744,67.704613 
	C102.397858,86.913940 134.356735,87.550201 144.780594,73.386192 
	C146.665192,70.825401 147.565567,67.540268 149.240631,64.075104 
	C149.409927,62.042995 149.579224,60.010887 149.908966,57.295616 
M24.999756,51.473221 
	C26.246584,52.220181 27.493410,52.967140 29.257414,54.148357 
	C31.857996,55.068993 34.442738,56.037792 37.062748,56.899357 
	C41.346436,58.308002 45.653080,59.646824 50.167118,61.879795 
	C51.254047,64.672440 50.208344,66.449951 47.424744,67.109756 
	C42.568848,68.260773 39.805962,66.004265 38.844463,61.529991 
	C32.082214,61.529991 25.531191,61.529991 18.820843,61.529991 
	C18.617134,70.016243 22.057547,76.259186 29.269642,79.668648 
	C39.884563,84.686768 50.939953,84.611938 61.601467,79.762009 
	C69.760201,76.050591 73.186539,67.795616 71.156181,58.230217 
	C69.424309,55.524456 67.692429,52.818695 65.602798,49.553013 
	C64.062698,48.715183 62.522602,47.877357 60.458553,46.539471 
	C55.673794,45.292645 50.889038,44.045822 45.554115,42.332088 
	C38.505878,39.972893 37.682446,38.009129 42.832352,33.882626 
	C44.223263,33.863140 45.614174,33.843658 47.583611,34.273705 
	C48.797508,35.951057 50.011406,37.628414 51.389568,39.532745 
	C57.425575,39.532745 63.843689,39.532745 71.299065,39.532745 
	C70.082108,36.017090 69.040794,33.008827 67.950012,29.344650 
	C66.978790,28.202633 66.007568,27.060616 64.797707,25.283762 
	C62.908154,24.016232 61.018597,22.748703 58.606617,21.032740 
	C48.158848,17.124296 37.855545,16.696362 27.141468,22.546555 
	C25.678951,23.998175 24.216436,25.449795 22.206070,27.184921 
	C21.732672,28.090172 21.259274,28.995424 20.130785,30.331831 
	C19.016373,35.631489 17.905127,40.930973 21.049559,46.700966 
	C22.270601,48.110256 23.491642,49.519547 24.999756,51.473221 
M535.068848,56.711945 
	C537.043030,58.030186 539.017151,59.348423 541.641113,61.098438 
	C547.184021,62.713650 552.726990,64.328857 558.513855,66.778603 
	C557.185303,70.628059 554.964539,71.220612 552.357544,68.478806 
	C551.533569,67.612198 550.557312,66.274673 549.611389,66.240440 
	C543.840210,66.031570 538.057739,66.136078 532.288879,66.136078 
	C532.374939,73.542801 535.626343,78.338287 542.603149,80.925797 
	C551.352844,84.170807 560.280579,84.011063 568.998535,80.819252 
	C575.482605,78.445297 578.492554,73.098358 578.130920,65.258530 
	C577.072876,63.176239 576.014832,61.093948 574.709778,58.371822 
	C571.107605,55.176266 567.083618,53.150906 561.859680,53.190262 
	C561.241638,53.147163 560.623535,53.104065 559.278259,52.959526 
	C558.545959,52.915459 557.813721,52.871391 556.791382,52.173267 
	C555.213562,51.741013 553.635742,51.308758 551.953247,50.026844 
	C552.416504,48.692894 552.879761,47.358944 553.343079,46.025005 
	C554.878296,46.674576 556.469971,47.221569 557.922607,48.021214 
	C558.556030,48.369907 558.893005,49.775692 559.383850,49.786007 
	C565.384277,49.912113 571.388245,49.868019 578.352966,49.868019 
	C576.627014,45.861637 575.495361,43.234818 574.189209,40.096012 
	C573.537109,39.487625 572.884949,38.879238 571.872620,37.731224 
	C566.546875,33.713028 560.332947,32.958633 553.981445,33.184258 
	C547.448425,33.416332 540.893005,33.922230 535.560913,39.292938 
	C535.272705,39.787243 534.984558,40.281548 534.038635,41.289261 
	C533.707764,44.859116 533.376892,48.428974 532.954224,52.675880 
	C533.577515,53.813755 534.200745,54.951630 535.068848,56.711945 
M466.307556,37.976616 
	C465.200470,38.972866 464.093384,39.969116 462.342285,41.227245 
	C460.298981,45.840878 458.255707,50.454514 455.962708,55.805622 
	C455.657867,61.747543 456.414124,67.411255 460.551422,72.919144 
	C472.184174,86.681473 495.606476,86.704887 506.579437,72.612976 
	C507.696198,70.550316 508.812927,68.487656 510.198975,65.927605 
	C505.435425,65.927605 501.580109,65.603310 497.806030,66.018082 
	C493.970032,66.439659 490.199738,67.529968 486.426666,68.435776 
	C481.459961,69.628151 478.040100,67.894722 475.972351,62.478798 
	C487.699707,62.478798 499.198914,62.478798 511.242889,62.478798 
	C510.831268,59.528732 510.518677,57.288395 510.260559,54.230904 
	C508.330658,50.094814 506.400726,45.958721 504.209686,41.237320 
	C503.232086,40.448608 502.254486,39.659901 500.901428,38.242165 
	C489.654327,31.908730 478.349609,30.694294 466.307556,37.976616 
M342.741760,37.923954 
	C340.496033,37.047550 338.248322,36.176094 336.004883,35.293900 
	C325.807312,31.283882 316.177063,32.676216 306.428528,38.487335 
	C305.603241,39.286644 304.777985,40.085953 303.305603,41.127510 
	C301.236420,45.746418 299.167236,50.365330 296.840881,55.796207 
	C297.001038,58.243298 297.161194,60.690392 297.272858,63.933281 
	C298.430115,66.481140 299.587341,69.028992 300.931000,72.197113 
	C308.554260,85.523857 338.523895,88.400993 349.815521,71.062378 
	C350.763947,68.324768 351.712341,65.587151 352.913422,62.142513 
	C352.895355,60.085152 352.877258,58.027790 352.977692,55.177597 
	C352.704803,49.423893 350.074341,44.814632 345.805847,40.286953 
	C344.934326,39.674126 344.062836,39.061295 342.741760,37.923954 
M261.794098,54.097630 
	C262.862000,54.058361 263.929932,54.019096 265.744415,54.082321 
	C266.496094,54.051857 267.247772,54.021397 268.795868,54.081493 
	C269.863007,54.050846 270.930176,54.020195 272.788788,54.051342 
	C273.389984,52.754116 274.766479,51.230633 274.464813,50.196880 
	C272.691010,44.118591 269.306885,39.219292 262.520630,36.383854 
	C259.845947,35.652561 257.169586,34.927223 254.496872,34.188835 
	C247.267441,32.191582 240.444031,33.266102 233.265488,37.012592 
	C224.204529,41.885700 220.588593,49.821674 221.087494,59.692295 
	C221.515442,68.159004 225.115234,74.967194 233.478851,79.502884 
	C244.600266,84.516205 255.458832,84.494682 266.588287,77.593735 
	C271.892303,73.536446 274.842010,68.203178 275.659821,61.113491 
	C274.180695,61.364597 273.117615,61.545074 271.269257,61.679150 
	C270.221252,61.672298 269.173218,61.665443 267.566162,61.320221 
	C266.703156,61.334911 265.840149,61.349602 264.187408,61.184578 
	C263.116058,61.242653 262.044678,61.300728 260.228882,61.195995 
	C258.724579,61.935787 256.923157,62.365791 255.770081,63.471775 
	C251.858200,67.223839 246.703979,67.801216 243.252121,64.571136 
	C240.183777,61.699970 239.868408,55.347828 242.638077,52.203766 
	C245.526093,48.925423 251.356033,49.046597 255.348129,52.030540 
	C256.869476,53.167675 259.094360,53.363514 261.794098,54.097630 
z"/>
<path fill="#E5DCCA" opacity="1.000000" stroke="none" 
	d="
M415.504608,79.993965 
	C414.330383,76.750275 412.769470,78.621529 411.125061,79.579788 
	C398.019531,87.217018 382.298401,82.443176 376.010193,68.759048 
	C374.882935,66.305962 374.748993,63.396450 374.749542,60.306019 
	C381.472321,59.612480 387.601929,59.310612 393.853027,59.357613 
	C394.878845,64.256126 397.896820,66.495758 402.289276,66.580658 
	C406.733612,66.666550 409.466492,64.103210 411.047729,60.049038 
	C415.682495,60.811356 419.967010,61.286785 424.197266,62.059345 
	C425.860229,62.363045 427.401886,63.331066 429.018311,64.261559 
	C429.469269,65.012642 429.900665,65.498726 430.332092,65.984810 
	C430.440430,70.362434 430.548767,74.740059 430.090698,79.559845 
	C424.851013,79.999321 420.177826,79.996643 415.504608,79.993965 
z"/>
<path fill="#E2DAC7" opacity="1.000000" stroke="none"
	d="
M71.072556,58.973938 
	C73.186539,67.795616 69.760201,76.050591 61.601467,79.762009 
	C50.939953,84.611938 39.884563,84.686768 29.269642,79.668648 
	C22.057547,76.259186 18.617134,70.016243 18.820843,61.529991 
	C25.531191,61.529991 32.082214,61.529991 38.844463,61.529991 
	C39.805962,66.004265 42.568848,68.260773 47.424744,67.109756 
	C50.208344,66.449951 51.254047,64.672440 50.476700,61.391266 
	C53.189507,60.601616 55.586575,60.232544 57.997292,60.014236 
	C62.351410,59.619946 66.713684,59.315758 71.072556,58.973938 
z"/>
<path fill="#E3DAC7" opacity="1.000000" stroke="none" 
	d="
M510.206055,55.048058 
	C510.518677,57.288395 510.831268,59.528732 511.242889,62.478798 
	C499.198914,62.478798 487.699707,62.478798 475.972351,62.478798 
	C478.040100,67.894722 481.459961,69.628151 486.426666,68.435776 
	C490.199738,67.529968 493.970032,66.439659 497.806030,66.018082 
	C501.580109,65.603310 505.435425,65.927605 510.198975,65.927605 
	C508.812927,68.487656 507.696198,70.550316 506.003540,72.511589 
	C502.181152,71.940285 498.926453,71.021507 495.689697,71.080856 
	C483.882233,71.297386 472.080780,71.840424 460.277039,72.260422 
	C456.414124,67.411255 455.657867,61.747543 456.617737,55.430408 
	C474.917175,55.052814 492.561615,55.050438 510.206055,55.048058 
z"/>
<path fill="#E3DBC8" opacity="1.000000" stroke="none" 
	d="
M148.920319,64.589539 
	C147.565567,67.540268 146.665192,70.825401 144.780594,73.386192 
	C134.356735,87.550201 102.397858,86.913940 95.601402,67.353188 
	C101.013878,67.000298 105.986244,67.210518 110.920868,66.871460 
	C112.448944,66.766464 113.874435,65.168358 115.671478,64.426392 
	C122.043427,67.930557 124.965370,67.372002 129.711975,62.418854 
	C131.505402,63.541985 133.069275,64.823875 134.675537,64.879349 
	C139.414810,65.043045 144.170837,64.721313 148.920319,64.589539 
z"/>
<path fill="#E2DAC7" opacity="1.000000" stroke="none" 
	d="
M578.005737,66.000198 
	C578.492554,73.098358 575.482605,78.445297 568.998535,80.819252 
	C560.280579,84.011063 551.352844,84.170807 542.603149,80.925797 
	C535.626343,78.338287 532.374939,73.542801 532.288879,66.136078 
	C538.057739,66.136078 543.840210,66.031570 549.611389,66.240440 
	C550.557312,66.274673 551.533569,67.612198 552.357544,68.478806 
	C554.964539,71.220612 557.185303,70.628059 558.842407,66.381195 
	C565.449280,65.989250 571.727478,65.994720 578.005737,66.000198 
z"/>
<path fill="#F7F5F1" opacity="1.000000" stroke="none" 
	d="
M346.040405,40.886650 
	C350.074341,44.814632 352.704803,49.423893 352.459290,55.574768 
	C345.739594,55.967609 339.538300,55.963276 333.188599,55.623276 
	C331.541718,51.426903 328.690735,49.600105 324.584015,49.705997 
	C320.383636,49.814297 317.914032,52.163464 316.178253,55.954205 
	C309.545959,55.627209 303.321991,55.305717 297.098022,54.984238 
	C299.167236,50.365330 301.236420,45.746418 303.822510,41.361824 
	C305.506287,42.062721 306.669617,42.924095 307.840607,42.934662 
	C319.217926,43.037342 330.597504,43.068462 341.973389,42.905228 
	C343.338440,42.885639 344.685181,41.590546 346.040405,40.886650 
z"/>
<path fill="#09733A" opacity="1.000000" stroke="none" 
	d="
M268.125214,61.658588 
	C269.173218,61.665443 270.221252,61.672298 271.638916,62.123070 
	C269.995514,67.646919 267.982452,72.726845 265.969391,77.806763 
	C255.458832,84.494682 244.600266,84.516205 233.238586,78.865387 
	C232.654404,77.321793 232.505463,76.264511 231.937531,75.532127 
	C222.177887,62.946068 222.218903,54.007854 232.013916,41.358772 
	C232.977539,40.114399 233.322647,38.391064 233.954834,36.890045 
	C240.444031,33.266102 247.267441,32.191582 254.496872,34.188835 
	C257.169586,34.927223 259.845947,35.652561 262.799255,37.008453 
	C263.809387,38.680767 264.662323,39.664795 265.250824,40.787460 
	C267.545135,45.164314 269.755646,49.585094 271.997314,53.989544 
	C270.930176,54.020195 269.863007,54.050846 268.391846,53.656013 
	C265.973541,45.230373 258.620941,38.328667 251.763962,38.001549 
	C240.179062,37.448891 232.360580,42.270363 228.935181,51.551212 
	C224.191345,64.404312 236.055939,80.841156 250.207092,78.204269 
	C260.707611,76.247635 267.284058,71.101227 268.125214,61.658588 
z"/>
<path fill="#F7F5F0" opacity="1.000000" stroke="none" 
	d="
M510.233307,54.639481 
	C492.561615,55.050438 474.917175,55.052814 456.742554,55.061668 
	C458.255707,50.454514 460.298981,45.840878 462.860626,41.443954 
	C464.893005,42.107105 466.403015,42.923843 467.921722,42.940346 
	C478.351990,43.053673 488.784576,43.053608 499.214966,42.946480 
	C500.970581,42.928448 502.719025,42.214855 504.470795,41.822639 
	C506.400726,45.958721 508.330658,50.094814 510.233307,54.639481 
M486.595734,47.757095 
	C481.505219,46.128349 478.138947,48.454449 475.346405,52.679516 
	C480.664886,52.679516 485.769653,52.679516 492.320282,52.679516 
	C490.031677,50.529320 488.684875,49.263985 486.595734,47.757095 
z"/>
<path fill="#F7F5F1" opacity="1.000000" stroke="none" 
	d="
M142.973373,41.114162 
	C145.123230,45.114674 147.273087,49.115189 148.894089,53.542881 
	C144.063446,53.983627 139.722687,53.666416 135.478226,54.166515 
	C133.670792,54.379471 132.064743,56.301731 130.220596,56.998882 
	C129.073410,52.352917 126.528435,49.940376 122.123245,49.709732 
	C117.483223,49.466789 114.769104,51.991417 112.644073,56.022179 
	C106.038727,56.029564 99.909302,56.038830 93.779877,56.048100 
	C95.599091,51.354248 97.418304,46.660397 99.654785,42.224220 
	C101.005203,42.984390 101.934898,43.916821 102.872025,43.924355 
	C115.256119,44.023857 127.642258,44.059307 140.024216,43.870525 
	C141.021057,43.855328 141.990952,42.074509 142.973373,41.114162 
z"/>
<path fill="#E7DECB" opacity="1.000000" stroke="none" 
	d="
M194.007004,81.603401 
	C188.639191,81.669281 183.271362,81.735161 177.391342,81.443893 
	C176.357712,80.727844 175.836288,80.368935 175.314865,80.010025 
	C175.257446,72.656113 175.200043,65.302193 175.628845,57.503269 
	C182.486389,57.392368 188.857712,57.726482 195.229034,58.060593 
	C195.318634,65.102318 195.408234,72.144035 195.106720,79.682816 
	C194.479416,80.654373 194.243210,81.128891 194.007004,81.603401 
z"/>
<path fill="#E4DCCA" opacity="1.000000" stroke="none" 
	d="
M349.225952,71.551132 
	C338.523895,88.400993 308.554260,85.523857 301.091553,71.509132 
	C302.013641,70.556396 302.774292,70.063538 303.536774,70.060692 
	C317.638184,70.007957 331.740051,69.978386 345.840942,70.073982 
	C346.972565,70.081657 348.097778,71.036461 349.225952,71.551132 
z"/>
<path fill="#F8F7F5" opacity="1.000000" stroke="none" 
	d="
M430.376373,32.019367 
	C430.466461,35.043346 430.556549,38.067322 430.085327,41.539612 
	C412.788910,41.988579 396.053772,41.989231 379.318665,41.989887 
	C386.404297,33.061829 396.184143,30.923065 409.720459,35.527203 
	C409.886444,34.617535 410.044220,33.752716 410.746704,32.446327 
	C417.653076,32.009624 424.014740,32.014496 430.376373,32.019367 
z"/>
<path fill="#E2DAC7" opacity="1.000000" stroke="none" 
	d="
M460.414246,72.589783 
	C472.080780,71.840424 483.882233,71.297386 495.689697,71.080856 
	C498.926453,71.021507 502.181152,71.940285 505.706360,72.687386 
	C495.606476,86.704887 472.184174,86.681473 460.414246,72.589783 
z"/>
<path fill="#117F3D" opacity="1.000000" stroke="none" 
	d="
M267.845703,61.489403 
	C267.284058,71.101227 260.707611,76.247635 250.207092,78.204269 
	C236.055939,80.841156 224.191345,64.404312 228.935181,51.551212 
	C232.360580,42.270363 240.179062,37.448891 251.763962,38.001549 
	C258.620941,38.328667 265.973541,45.230373 267.993652,53.610733 
	C267.247772,54.021397 266.496094,54.051857 265.366760,53.665367 
	C262.136627,49.747208 259.896027,45.312931 256.295807,42.951908 
	C250.070786,38.869526 241.827759,40.642040 236.666214,45.833664 
	C230.762955,51.771320 229.606277,58.707630 233.253357,66.299721 
	C235.749329,71.495499 244.829727,76.611191 250.130371,75.807831 
	C258.378357,74.557777 263.327515,69.743034 264.977142,61.364296 
	C265.840149,61.349602 266.703156,61.334911 267.845703,61.489403 
z"/>
<path fill="#219241" opacity="1.000000" stroke="none" 
	d="
M260.998627,53.988342 
	C259.094360,53.363514 256.869476,53.167675 255.348129,52.030540 
	C251.356033,49.046597 245.526093,48.925423 242.638077,52.203766 
	C239.868408,55.347828 240.183777,61.699970 243.252121,64.571136 
	C246.703979,67.801216 251.858200,67.223839 255.770081,63.471775 
	C256.923157,62.365791 258.724579,61.935787 260.607605,61.637001 
	C259.285339,64.734070 258.154755,68.192612 255.770462,69.887291 
	C249.930130,74.038383 242.293808,72.461731 237.448105,66.936005 
	C233.386658,62.304596 233.182739,54.211300 237.649872,49.145126 
	C241.070328,45.265945 245.977249,43.078880 251.072800,44.369778 
	C255.812576,45.570541 260.584290,47.818275 260.998627,53.988342 
z"/>
<path fill="#E0D6C0" opacity="1.000000" stroke="none" 
	d="
M71.114365,58.602081 
	C66.713684,59.315758 62.351410,59.619946 57.997292,60.014236 
	C55.586575,60.232544 53.189507,60.601616 50.368164,60.958916 
	C45.653080,59.646824 41.346436,58.308002 37.062748,56.899357 
	C34.442738,56.037792 31.857996,55.068993 29.170376,53.518944 
	C30.837074,52.261166 32.579159,51.131084 34.346539,51.090042 
	C42.641605,50.897396 50.944389,51.065868 59.242661,50.963165 
	C61.485123,50.935410 63.721424,50.409946 65.960556,50.112934 
	C67.692429,52.818695 69.424309,55.524456 71.114365,58.602081 
z"/>
<path fill="#F9F8F4" opacity="1.000000" stroke="none" 
	d="
M533.046021,51.998833 
	C533.376892,48.428974 533.707764,44.859116 534.424683,41.414719 
	C535.540466,42.027260 536.270203,42.514347 537.464661,43.001450 
	C542.285400,43.001434 546.641479,43.001404 551.030579,43.291405 
	C551.709045,43.720505 552.354553,43.859566 553.375000,43.998829 
	C554.500000,43.998848 555.250000,43.998661 556.201660,44.249229 
	C557.269714,44.000443 558.136108,43.500904 559.470703,43.001427 
	C563.354553,42.999176 566.793762,43.229340 570.174805,42.886063 
	C571.633179,42.737995 572.971069,41.403522 574.363708,40.608002 
	C575.495361,43.234818 576.627014,45.861637 578.352966,49.868019 
	C571.388245,49.868019 565.384277,49.912113 559.383850,49.786007 
	C558.893005,49.775692 558.556030,48.369907 557.922607,48.021214 
	C556.469971,47.221569 554.878296,46.674576 553.343079,46.025002 
	C552.879761,47.358944 552.416504,48.692894 551.718628,50.764343 
	C545.337952,51.667507 539.192017,51.833172 533.046021,51.998833 
z"/>
<path fill="#E3DAC6" opacity="1.000000" stroke="none" 
	d="
M349.520752,71.306755 
	C348.097778,71.036461 346.972565,70.081657 345.840942,70.073982 
	C331.740051,69.978386 317.638184,70.007957 303.536774,70.060692 
	C302.774292,70.063538 302.013641,70.556396 300.998352,71.199005 
	C299.587341,69.028992 298.430115,66.481140 297.763550,63.508514 
	C304.680756,62.987453 311.107269,62.891159 317.786224,63.004280 
	C323.189728,67.830521 326.790802,67.778503 332.658997,63.020947 
	C339.597412,62.972179 346.129089,62.910851 352.660767,62.849525 
	C351.712341,65.587151 350.763947,68.324768 349.520752,71.306755 
z"/>
<path fill="#198A3F" opacity="1.000000" stroke="none" 
	d="
M261.396362,54.042984 
	C260.584290,47.818275 255.812576,45.570541 251.072800,44.369778 
	C245.977249,43.078880 241.070328,45.265945 237.649872,49.145126 
	C233.182739,54.211300 233.386658,62.304596 237.448105,66.936005 
	C242.293808,72.461731 249.930130,74.038383 255.770462,69.887291 
	C258.154755,68.192612 259.285339,64.734070 260.979797,61.718407 
	C262.044678,61.300728 263.116058,61.242653 264.582275,61.274437 
	C263.327515,69.743034 258.378357,74.557777 250.130371,75.807831 
	C244.829727,76.611191 235.749329,71.495499 233.253357,66.299721 
	C229.606277,58.707630 230.762955,51.771320 236.666214,45.833664 
	C241.827759,40.642040 250.070786,38.869526 256.295807,42.951908 
	C259.896027,45.312931 262.136627,49.747208 264.993469,53.614120 
	C263.929932,54.019096 262.862000,54.058361 261.396362,54.042984 
z"/>
<path fill="#F7F5F2" opacity="1.000000" stroke="none" 
	d="
M21.003550,45.995903 
	C17.905127,40.930973 19.016373,35.631489 20.856403,30.286861 
	C27.037500,30.494535 32.491768,30.779604 37.949081,30.983017 
	C39.980793,31.058746 42.175835,30.721294 41.995396,33.845078 
	C37.682446,38.009129 38.505878,39.972893 45.552296,42.895950 
	C39.657635,43.642422 33.752926,43.661671 27.877844,44.088661 
	C25.552490,44.257660 23.293018,45.333149 21.003550,45.995903 
z"/>
<path fill="#E4D9C4" opacity="1.000000" stroke="none" 
	d="
M428.998779,63.996552 
	C427.401886,63.331066 425.860229,62.363045 424.197266,62.059345 
	C419.967010,61.286785 415.682495,60.811356 411.097778,59.671608 
	C410.169250,56.793465 409.562653,54.460705 409.048248,51.723831 
	C410.607086,50.879814 412.064606,50.099972 413.541931,50.060402 
	C419.148651,49.910233 424.761780,49.999611 430.372528,49.999420 
	C430.460297,53.773941 430.548035,57.548458 430.407715,61.997261 
	C429.786011,63.113209 429.392395,63.554878 428.998779,63.996552 
z"/>
<path fill="#F1EDE3" opacity="1.000000" stroke="none" 
	d="
M535.989197,39.188816 
	C540.893005,33.922230 547.448425,33.416332 553.981445,33.184258 
	C560.332947,32.958633 566.546875,33.713028 571.951538,38.446476 
	C570.325928,39.774162 568.629456,40.889336 566.915649,40.916573 
	C556.613647,41.080296 546.307739,40.994289 535.997986,40.691406 
	C535.991638,39.990196 535.990417,39.589504 535.989197,39.188816 
z"/>
<path fill="#E7DFCF" opacity="1.000000" stroke="none" 
	d="
M430.505615,49.610245 
	C424.761780,49.999611 419.148651,49.910233 413.541931,50.060402 
	C412.064606,50.099972 410.607086,50.879814 408.700500,51.564415 
	C404.693481,48.791214 400.870575,49.287533 396.548706,50.925797 
	C389.200348,50.535557 382.263367,50.205948 375.326385,49.876343 
	C375.755310,48.615063 376.184265,47.353783 377.372803,45.962570 
	C395.549072,45.882217 412.965729,45.931789 430.382355,45.981361 
	C430.467804,47.061264 430.553223,48.141163 430.505615,49.610245 
z"/>
<path fill="#F1EDE3" opacity="1.000000" stroke="none" 
	d="
M306.993011,38.333443 
	C316.177063,32.676216 325.807312,31.283882 336.004883,35.293900 
	C338.248322,36.176094 340.496033,37.047550 342.794830,38.584244 
	C341.731720,39.823925 340.622437,40.890324 339.498291,40.906239 
	C329.856110,41.042744 320.209229,41.082432 310.569733,40.874901 
	C309.359802,40.848850 308.184418,39.219784 306.993011,38.333443 
z"/>
<path fill="#E1D8C4" opacity="1.000000" stroke="none" 
	d="
M93.587341,56.366829 
	C99.909302,56.038830 106.038727,56.029564 112.700958,56.405144 
	C113.938141,59.277950 114.642517,61.765903 115.346893,64.253860 
	C113.874435,65.168358 112.448944,66.766464 110.920868,66.871460 
	C105.986244,67.210518 101.013878,67.000298 95.596390,67.001328 
	C94.556084,63.562450 93.975449,60.124001 93.587341,56.366829 
z"/>
<path fill="#FBFAF7" opacity="1.000000" stroke="none" 
	d="
M195.201645,28.983963 
	C195.292236,32.987114 195.382812,36.990261 195.359375,41.426998 
	C195.245361,41.860584 195.225845,41.859478 195.076172,41.483200 
	C188.932037,41.087990 182.937607,41.069057 176.669662,41.031883 
	C176.031784,41.000168 175.667404,40.986698 175.303009,40.973228 
	C175.246628,37.619907 175.190231,34.266586 175.672211,30.464869 
	C182.540939,29.672300 188.871292,29.328131 195.201645,28.983963 
z"/>
<path fill="#F1EDE3" opacity="1.000000" stroke="none" 
	d="
M466.950592,37.860077 
	C478.349609,30.694294 489.654327,31.908730 500.724182,38.736351 
	C499.213196,39.816071 497.888031,40.884674 496.544281,40.908649 
	C487.907135,41.062771 479.262054,41.113937 470.630280,40.849220 
	C469.374359,40.810707 468.175720,38.902908 466.950592,37.860077 
z"/>
<path fill="#F2EDE3" opacity="1.000000" stroke="none" 
	d="
M430.508423,45.590401 
	C412.965729,45.931789 395.549072,45.882217 377.605408,45.723560 
	C377.638031,44.561489 378.197723,43.508499 379.038025,42.222698 
	C396.053772,41.989231 412.788910,41.988579 429.952454,41.974686 
	C430.465424,43.040783 430.549957,44.120113 430.508423,45.590401 
z"/>
<path fill="#E1D7C2" opacity="1.000000" stroke="none" 
	d="
M578.068359,65.629364 
	C571.727478,65.994720 565.449280,65.989250 558.720459,65.963928 
	C552.726990,64.328857 547.184021,62.713650 541.444092,60.515869 
	C542.784912,59.621632 544.320679,59.052658 545.860901,59.040218 
	C555.558960,58.961880 565.258057,59.007202 574.956787,59.011658 
	C576.014832,61.093948 577.072876,63.176239 578.068359,65.629364 
z"/>
<path fill="#F7F5F2" opacity="1.000000" stroke="none" 
	d="
M67.999474,30.000563 
	C69.040794,33.008827 70.082108,36.017090 71.299065,39.532745 
	C63.843689,39.532745 57.425575,39.532745 51.389568,39.532745 
	C50.011406,37.628414 48.797508,35.951057 47.315891,33.645607 
	C48.472458,32.344879 49.853394,31.221819 51.328747,31.079836 
	C56.868965,30.546656 62.439991,30.333582 67.999474,30.000563 
z"/>
<path fill="#E0D6C1" opacity="1.000000" stroke="none" 
	d="
M375.150208,50.245209 
	C382.263367,50.205948 389.200348,50.535557 396.379456,51.237026 
	C395.658234,54.075508 394.694885,56.542126 393.731537,59.008743 
	C387.601929,59.310612 381.472321,59.612480 374.828735,59.854202 
	C374.534485,56.734066 374.754242,53.674072 375.150208,50.245209 
z"/>
<path fill="#E9E4D8" opacity="1.000000" stroke="none" 
	d="
M27.803053,22.311275 
	C37.855545,16.696362 48.158848,17.124296 58.827396,21.704044 
	C57.773922,23.247993 56.522263,24.834511 55.221695,24.875666 
	C47.643391,25.115480 40.048252,25.142275 32.472073,24.870708 
	C30.887188,24.813898 29.357939,23.204962 27.803053,22.311275 
z"/>
<path fill="#F3F0E7" opacity="1.000000" stroke="none" 
	d="
M132.980743,35.087837 
	C135.583344,36.355152 138.185944,37.622463 140.887451,39.584694 
	C139.926849,40.849937 138.873108,41.903008 137.806900,41.915771 
	C127.369057,42.040737 116.926971,42.092220 106.492516,41.867214 
	C105.180511,41.838921 103.905502,40.094604 102.613358,39.145367 
	C104.845024,37.830227 107.076691,36.515091 109.733467,35.551628 
	C113.586670,38.357784 128.789597,39.012634 132.089264,36.769707 
	C132.553177,36.454384 132.691650,35.660309 132.980743,35.087837 
z"/>
<path fill="#D7CEBC" opacity="1.000000" stroke="none" 
	d="
M195.376999,57.662949 
	C188.857712,57.726482 182.486389,57.392368 175.712646,57.043327 
	C175.239838,54.631996 175.169464,52.235600 175.652344,49.405720 
	C181.947662,48.972240 187.689728,48.972240 193.002045,48.972240 
	C193.936371,51.087742 194.565933,52.513176 195.195496,53.938606 
	C195.305313,55.047504 195.415131,56.156403 195.376999,57.662949 
z"/>
<path fill="#F3F0E7" opacity="1.000000" stroke="none" 
	d="
M27.472260,22.428915 
	C29.357939,23.204962 30.887188,24.813898 32.472073,24.870708 
	C40.048252,25.142275 47.643391,25.115480 55.221695,24.875666 
	C56.522263,24.834511 57.773922,23.247993 59.088608,21.928261 
	C61.018597,22.748703 62.908154,24.016232 64.744644,25.941998 
	C62.663895,27.400057 60.654175,28.832169 58.605400,28.890413 
	C49.663929,29.144602 40.705894,29.172792 31.765316,28.903427 
	C28.744154,28.812403 25.756752,27.600868 22.753922,26.901417 
	C24.216436,25.449795 25.678951,23.998175 27.472260,22.428915 
z"/>
<path fill="#E1D8C4" opacity="1.000000" stroke="none" 
	d="
M317.533813,62.794861 
	C311.107269,62.891159 304.680756,62.987453 297.787781,63.110615 
	C297.161194,60.690392 297.001038,58.243298 296.969452,55.390221 
	C303.321991,55.305717 309.545959,55.627209 316.226196,56.387962 
	C316.966278,58.816444 317.250061,60.805653 317.533813,62.794861 
z"/>
<path fill="#E7DFCF" opacity="1.000000" stroke="none" 
	d="
M574.833252,58.691742 
	C565.258057,59.007202 555.558960,58.961880 545.860901,59.040218 
	C544.320679,59.052658 542.784912,59.621632 541.119263,60.299980 
	C539.017151,59.348423 537.043030,58.030186 535.340088,56.225571 
	C541.353943,55.492310 547.107361,55.376659 552.831787,54.907928 
	C554.295349,54.788094 555.667358,53.551071 557.081421,52.827324 
	C557.813721,52.871391 558.545959,52.915459 559.671265,53.308289 
	C560.738770,53.711895 561.413269,53.766739 562.087708,53.821587 
	C567.083618,53.150906 571.107605,55.176266 574.833252,58.691742 
z"/>
<path fill="#036836" opacity="1.000000" stroke="none" 
	d="
M233.610168,36.951317 
	C233.322647,38.391064 232.977539,40.114399 232.013916,41.358772 
	C222.218903,54.007854 222.177887,62.946068 231.937531,75.532127 
	C232.505463,76.264511 232.654404,77.321793 233.009277,78.590431 
	C225.115234,74.967194 221.515442,68.159004 221.087494,59.692295 
	C220.588593,49.821674 224.204529,41.885700 233.610168,36.951317 
z"/>
<path fill="#F0EADE" opacity="1.000000" stroke="none" 
	d="
M430.334961,17.992825 
	C430.438507,19.394873 430.542084,20.796917 430.140320,22.701191 
	C423.227631,23.137024 416.820251,23.070623 410.412872,23.004225 
	C410.412872,20.894491 410.412872,18.784758 410.412872,16.067566 
	C416.346680,16.067566 422.217438,16.067566 428.578552,16.402782 
	C429.490906,17.156271 429.912933,17.574545 430.334961,17.992825 
z"/>
<path fill="#F0EADE" opacity="1.000000" stroke="none" 
	d="
M195.172333,16.963745 
	C195.278778,19.024015 195.385223,21.084284 194.870544,23.567780 
	C187.941803,23.996468 181.634216,24.001932 175.326614,24.007397 
	C175.326614,21.560736 175.326614,19.114077 175.326614,16.060955 
	C181.288025,16.060955 187.177521,16.060955 193.672333,16.329327 
	C194.522690,16.849649 194.820923,16.971664 195.172333,16.963745 
z"/>
<path fill="#EDE7DC" opacity="1.000000" stroke="none" 
	d="
M21.026554,46.348434 
	C23.293018,45.333149 25.552490,44.257660 27.877844,44.088661 
	C33.752926,43.661671 39.657635,43.642422 45.827377,43.129402 
	C50.889038,44.045822 55.673794,45.292645 60.420261,47.076900 
	C50.082088,47.744038 39.777603,47.749592 29.487083,48.131546 
	C27.863245,48.191814 26.302565,49.953705 24.712683,50.928833 
	C23.491642,49.519547 22.270601,48.110256 21.026554,46.348434 
z"/>
<path fill="#E2D8C5" opacity="1.000000" stroke="none" 
	d="
M352.787079,62.496017 
	C346.129089,62.910851 339.597412,62.972179 332.759766,62.641106 
	C332.748199,60.152119 333.042633,58.055534 333.337036,55.958946 
	C339.538300,55.963276 345.739594,55.967609 352.400024,55.971184 
	C352.877258,58.027790 352.895355,60.085152 352.787079,62.496017 
z"/>
<path fill="#DFD5C0" opacity="1.000000" stroke="none" 
	d="
M149.080475,64.332321 
	C144.170837,64.721313 139.414810,65.043045 134.675537,64.879349 
	C133.069275,64.823875 131.505402,63.541985 129.758118,62.142460 
	C129.833435,60.370449 130.072800,59.276508 130.821350,58.134033 
	C137.469864,58.049923 143.609192,58.014351 149.748535,57.978775 
	C149.579224,60.010887 149.409927,62.042995 149.080475,64.332321 
z"/>
<path fill="#E7DFCF" opacity="1.000000" stroke="none" 
	d="
M24.856220,51.201027 
	C26.302565,49.953705 27.863245,48.191814 29.487083,48.131546 
	C39.777603,47.749592 50.082088,47.744038 60.682236,47.326931 
	C62.522602,47.877357 64.062698,48.715183 65.781677,49.832973 
	C63.721424,50.409946 61.485123,50.935410 59.242661,50.963165 
	C50.944389,51.065868 42.641605,50.897396 34.346539,51.090042 
	C32.579159,51.131084 30.837074,52.261166 28.911787,53.301811 
	C27.493410,52.967140 26.246584,52.220181 24.856220,51.201027 
z"/>
<path fill="#F3F1EB" opacity="1.000000" stroke="none" 
	d="
M22.479996,27.043169 
	C25.756752,27.600868 28.744154,28.812403 31.765316,28.903427 
	C40.705894,29.172792 49.663929,29.144602 58.605400,28.890413 
	C60.654175,28.832169 62.663895,27.400057 64.863968,26.259415 
	C66.007568,27.060616 66.978790,28.202633 67.974747,29.672607 
	C62.439991,30.333582 56.868965,30.546656 51.328747,31.079836 
	C49.853394,31.221819 48.472458,32.344879 47.026627,33.420845 
	C45.614174,33.843658 44.223263,33.863140 42.413872,33.863853 
	C42.175835,30.721294 39.980793,31.058746 37.949081,30.983017 
	C32.491768,30.779604 27.037500,30.494535 21.183949,30.071285 
	C21.259274,28.995424 21.732672,28.090172 22.479996,27.043169 
z"/>
<path fill="#F5F1E9" opacity="1.000000" stroke="none" 
	d="
M175.236908,24.430008 
	C181.634216,24.001932 187.941803,23.996468 194.732025,23.990559 
	C195.306564,25.388912 195.398468,26.787710 195.346008,28.585236 
	C188.871292,29.328131 182.540939,29.672300 175.765396,30.016453 
	C175.262543,28.295164 175.204865,26.573893 175.236908,24.430008 
z"/>
<path fill="#F3F0E7" opacity="1.000000" stroke="none" 
	d="
M410.313660,23.424742 
	C416.820251,23.070623 423.227631,23.137024 430.000580,23.103733 
	C430.462830,24.728651 430.559479,26.453260 430.090118,28.588867 
	C423.151306,29.001633 416.778534,29.003399 410.405762,29.005163 
	C410.341980,27.285194 410.278198,25.565226 410.313660,23.424742 
z"/>
<path fill="#EDE6D8" opacity="1.000000" stroke="none" 
	d="
M195.311584,53.578693 
	C194.565933,52.513176 193.936371,51.087742 193.002045,48.972240 
	C187.689728,48.972240 181.947662,48.972240 175.757019,48.967598 
	C175.237091,46.589104 175.165771,44.215252 175.198730,41.407310 
	C175.667404,40.986698 176.031784,41.000168 176.592285,41.247292 
	C176.853287,41.993340 176.918182,42.505737 177.083130,43.410698 
	C183.194504,43.871052 189.205841,43.938847 195.217194,44.006641 
	C195.287369,47.077354 195.357529,50.148064 195.311584,53.578693 
z"/>
<path fill="#E7E2D6" opacity="1.000000" stroke="none" 
	d="
M132.660004,34.871223 
	C132.691650,35.660309 132.553177,36.454384 132.089264,36.769707 
	C128.789597,39.012634 113.586670,38.357784 110.073570,35.540878 
	C117.374840,32.275093 124.835533,32.547264 132.660004,34.871223 
z"/>
<path fill="#F6F3EE" opacity="1.000000" stroke="none" 
	d="
M466.629089,37.918350 
	C468.175720,38.902908 469.374359,40.810707 470.630280,40.849220 
	C479.262054,41.113937 487.907135,41.062771 496.544281,40.908649 
	C497.888031,40.884674 499.213196,39.816071 500.911926,39.050861 
	C502.254486,39.659901 503.232086,40.448608 504.340240,41.529984 
	C502.719025,42.214855 500.970581,42.928448 499.214966,42.946480 
	C488.784576,43.053608 478.351990,43.053673 467.921722,42.940346 
	C466.403015,42.923843 464.893005,42.107105 463.182617,41.313011 
	C464.093384,39.969116 465.200470,38.972866 466.629089,37.918350 
z"/>
<path fill="#F6F3EE" opacity="1.000000" stroke="none" 
	d="
M306.710754,38.410389 
	C308.184418,39.219784 309.359802,40.848850 310.569733,40.874901 
	C320.209229,41.082432 329.856110,41.042744 339.498291,40.906239 
	C340.622437,40.890324 341.731720,39.823925 343.019592,38.846497 
	C344.062836,39.061295 344.934326,39.674126 345.923126,40.586800 
	C344.685181,41.590546 343.338440,42.885639 341.973389,42.905228 
	C330.597504,43.068462 319.217926,43.037342 307.840607,42.934662 
	C306.669617,42.924095 305.506287,42.062721 304.146057,41.240700 
	C304.777985,40.085953 305.603241,39.286644 306.710754,38.410389 
z"/>
<path fill="#F7F5F0" opacity="1.000000" stroke="none" 
	d="
M102.310867,39.247314 
	C103.905502,40.094604 105.180511,41.838921 106.492516,41.867214 
	C116.926971,42.092220 127.369057,42.040737 137.806900,41.915771 
	C138.873108,41.903008 139.926849,40.849937 141.078445,39.843285 
	C141.692688,39.775410 142.214874,40.143860 142.855209,40.813240 
	C141.990952,42.074509 141.021057,43.855328 140.024216,43.870525 
	C127.642258,44.059307 115.256119,44.023857 102.872025,43.924355 
	C101.934898,43.916821 101.005203,42.984390 99.972198,42.063412 
	C100.584351,40.879707 101.296364,40.114483 102.310867,39.247314 
z"/>
<path fill="#F6F3EE" opacity="1.000000" stroke="none" 
	d="
M536.003113,40.991928 
	C546.307739,40.994289 556.613647,41.080296 566.915649,40.916573 
	C568.629456,40.889336 570.325928,39.774162 572.131653,38.716290 
	C572.884949,38.879238 573.537109,39.487625 574.276489,40.352009 
	C572.971069,41.403522 571.633179,42.737995 570.174805,42.886063 
	C566.793762,43.229340 563.354553,42.999176 559.133179,43.003136 
	C557.551575,43.336014 556.775818,43.667240 556.000000,43.998470 
	C555.250000,43.998661 554.500000,43.998848 553.204346,43.756889 
	C552.104919,43.343628 551.551270,43.172501 550.997559,43.001373 
	C546.641479,43.001404 542.285400,43.001434 537.356079,42.742264 
	C536.522949,41.986019 536.263062,41.488976 536.003113,40.991928 
z"/>
<path fill="#F6F4EF" opacity="1.000000" stroke="none" 
	d="
M556.936401,52.500298 
	C555.667358,53.551071 554.295349,54.788094 552.831787,54.907928 
	C547.107361,55.376659 541.353943,55.492310 535.217651,55.914349 
	C534.200745,54.951630 533.577515,53.813755 533.000122,52.337357 
	C539.192017,51.833172 545.337952,51.667507 551.770935,51.189171 
	C553.635742,51.308758 555.213562,51.741013 556.936401,52.500298 
z"/>
<path fill="#EDE6D8" opacity="1.000000" stroke="none" 
	d="
M149.828751,57.637196 
	C143.609192,58.014351 137.469864,58.049923 130.753265,58.049240 
	C130.123016,57.780308 130.186737,57.591717 130.367172,57.447212 
	C132.064743,56.301731 133.670792,54.379471 135.478226,54.166515 
	C139.722687,53.666416 144.063446,53.983627 148.857025,53.942863 
	C149.535553,55.042316 149.722260,56.168968 149.828751,57.637196 
z"/>
<path fill="#F7F5F1" opacity="1.000000" stroke="none" 
	d="
M410.307434,29.374357 
	C416.778534,29.003399 423.151306,29.001633 429.952515,29.001017 
	C430.470398,29.764894 430.559845,30.527620 430.512817,31.654858 
	C424.014740,32.014496 417.653076,32.009624 410.849030,32.006485 
	C410.340790,31.253326 410.274933,30.498438 410.307434,29.374357 
z"/>
<path fill="#036836" opacity="1.000000" stroke="none" 
	d="
M272.393066,54.020443 
	C269.755646,49.585094 267.545135,45.164314 265.250824,40.787460 
	C264.662323,39.664795 263.809387,38.680767 263.054199,37.278046 
	C269.306885,39.219292 272.691010,44.118591 274.464813,50.196880 
	C274.766479,51.230633 273.389984,52.754116 272.393066,54.020443 
z"/>
<path fill="#056634" opacity="1.000000" stroke="none" 
	d="
M266.278839,77.700249 
	C267.982452,72.726845 269.995514,67.646919 272.031525,62.146271 
	C273.117615,61.545074 274.180695,61.364597 275.659821,61.113491 
	C274.842010,68.203178 271.892303,73.536446 266.278839,77.700249 
z"/>
<path fill="#F1EDE3" opacity="1.000000" stroke="none" 
	d="
M195.352463,43.654472 
	C189.205841,43.938847 183.194504,43.871052 177.552872,43.404049 
	C183.690338,42.623055 189.458099,42.241264 195.225845,41.859478 
	C195.225845,41.859478 195.245361,41.860584 195.227844,41.853809 
	C195.302780,42.332127 195.395264,42.817215 195.352463,43.654472 
z"/>
<path fill="#EFE6D4" opacity="1.000000" stroke="none" 
	d="
M415.616638,80.432632 
	C420.177826,79.996643 424.851013,79.999321 429.951294,80.006561 
	C429.795471,80.644600 429.188446,81.845200 428.633575,81.821541 
	C424.326294,81.637871 420.029022,81.218063 415.616638,80.432632 
z"/>
<path fill="#F6F4EF" opacity="1.000000" stroke="none" 
	d="
M535.997986,40.691406 
	C536.263062,41.488976 536.522949,41.986019 536.891479,42.742252 
	C536.270203,42.514347 535.540466,42.027260 534.753540,41.158012 
	C534.984558,40.281548 535.272705,39.787243 535.775024,39.240875 
	C535.990417,39.589504 535.991638,39.990196 535.997986,40.691406 
z"/>
<path fill="#EFE6D4" opacity="1.000000" stroke="none" 
	d="
M429.018311,64.261551 
	C429.392395,63.554878 429.786011,63.113209 430.255798,62.451317 
	C430.421021,63.241489 430.510101,64.251884 430.465637,65.623550 
	C429.900665,65.498726 429.469269,65.012642 429.018311,64.261551 
z"/>
<path fill="#F6F4EF" opacity="1.000000" stroke="none" 
	d="
M561.973694,53.505924 
	C561.413269,53.766739 560.738770,53.711895 560.034912,53.359009 
	C560.623535,53.104065 561.241638,53.147163 561.973694,53.505924 
z"/>
<path fill="#EFE6D4" opacity="1.000000" stroke="none" 
	d="
M175.242615,80.311363 
	C175.836288,80.368935 176.357712,80.727844 176.933655,81.339226 
	C176.382233,81.265366 175.776291,80.939034 175.242615,80.311363 
z"/>
<path fill="#F3F0E7" opacity="1.000000" stroke="none" 
	d="
M430.463196,17.717068 
	C429.912933,17.574545 429.490906,17.156271 429.038910,16.497475 
	C429.536438,16.651739 430.063934,17.046528 430.463196,17.717068 
z"/>
<path fill="#EFE6D4" opacity="1.000000" stroke="none" 
	d="
M194.335968,81.629265 
	C194.243210,81.128891 194.479416,80.654373 194.965576,80.065460 
	C195.280457,80.115234 195.345367,80.279411 195.204193,80.698624 
	C194.998123,80.953674 194.988068,81.079704 194.988068,81.079704 
	C194.880356,81.271515 194.772629,81.463318 194.335968,81.629265 
z"/>
<path fill="#D7CEBC" opacity="1.000000" stroke="none" 
	d="
M195.161133,16.651649 
	C194.820923,16.971664 194.522690,16.849649 194.136322,16.394691 
	C194.379959,16.240973 194.764938,16.290262 195.161133,16.651649 
z"/>
<path fill="#E7DECB" opacity="1.000000" stroke="none" 
	d="
M195.000244,81.211884 
	C194.988068,81.079704 194.998123,80.953674 195.042496,80.908340 
	C195.086868,80.863007 195.291382,81.141418 195.291382,81.141418 
	C195.291382,81.141418 195.012405,81.344070 195.000244,81.211884 
z"/>
<path fill="#070706" opacity="1.000000" stroke="none" 
	d="
M393.853027,59.357609 
	C394.694885,56.542126 395.658234,54.075508 396.790863,51.297661 
	C400.870575,49.287533 404.693481,48.791214 408.608276,51.968529 
	C409.562653,54.460705 410.169250,56.793465 410.725830,59.503654 
	C409.466492,64.103210 406.733612,66.666550 402.289276,66.580658 
	C397.896820,66.495758 394.878845,64.256126 393.853027,59.357609 
z"/>
<path fill="#080807" opacity="1.000000" stroke="none" 
	d="
M130.220596,56.998878 
	C130.186737,57.591717 130.123016,57.780308 130.244080,58.097778 
	C130.072800,59.276508 129.833435,60.370449 129.547943,61.740784 
	C124.965370,67.372002 122.043427,67.930557 115.671478,64.426392 
	C114.642517,61.765903 113.938141,59.277950 113.176880,56.407028 
	C114.769104,51.991417 117.483223,49.466789 122.123245,49.709732 
	C126.528435,49.940376 129.073410,52.352917 130.220596,56.998878 
z"/>
<path fill="#060605" opacity="1.000000" stroke="none" 
	d="
M333.188629,55.623276 
	C333.042633,58.055534 332.748199,60.152119 332.353027,62.628544 
	C326.790802,67.778503 323.189728,67.830521 317.786255,63.004280 
	C317.250061,60.805653 316.966278,58.816444 316.634521,56.393471 
	C317.914032,52.163464 320.383636,49.814297 324.584015,49.705997 
	C328.690735,49.600105 331.541718,51.426903 333.188629,55.623276 
z"/>
<path fill="#0C0C0C" opacity="1.000000" stroke="none" 
	d="
M486.966919,47.877869 
	C488.684875,49.263985 490.031677,50.529320 492.320282,52.679516 
	C485.769653,52.679516 480.664886,52.679516 475.346405,52.679516 
	C478.138947,48.454449 481.505219,46.128349 486.966919,47.877869 
z"/>
<path fill="#F6F4EF" opacity="1.000000" stroke="none" 
	d="
M556.201660,44.249222 
	C556.775818,43.667240 557.551575,43.336014 558.664917,43.003078 
	C558.136108,43.500904 557.269714,44.000443 556.201660,44.249222 
z"/>
<path fill="#F6F4EF" opacity="1.000000" stroke="none" 
	d="
M551.030579,43.291405 
	C551.551270,43.172501 552.104919,43.343628 552.829346,43.756691 
	C552.354553,43.859566 551.709045,43.720505 551.030579,43.291405 
z"/>
<path fill="#F5F1E9" opacity="1.000000" stroke="none" 
	d="
M195.076172,41.483200 
	C189.458099,42.241264 183.690338,42.623055 177.452850,43.011490 
	C176.918182,42.505737 176.853287,41.993340 176.865784,41.265533 
	C182.937607,41.069057 188.932037,41.087990 195.076172,41.483200 
z"/>
</svg>